# AST/ASF file generated using VICON BodyLanguage
# -----------------------------------------------
:version 1.10
:name VICON
:units
  mass 1.0
  length 0.45
  angle deg
:documentation
   .ast/.asf automatically generated from VICON data using
   VICON BodyBuilder and BodyLanguage model FoxedUp or BRILLIANT.MOD
:root
   order TX TY TZ RX RY RZ
   axis XYZ
   position 0 0 0  
   orientation 0 0 0 
:bonedata
  begin
     id 1 
     name lhipjoint
     direction 0.547975 -0.797114 0.253638 
     length 2.36201 
     axis 0 0 0  XYZ
  end
  begin
     id 2 
     name lfemur
     direction 0.34202 -0.939693 0  
     length 7.69075  
     axis 0 0 20  XYZ
    dof rx ry rz
    limits (-160.0 20.0)
           (-70.0 70.0)
           (-60.0 70.0)
  end
  begin
     id 3 
     name ltibia
     direction 0.34202 -0.939693 0   
     length 7.91399   
     axis 0 0 20   XYZ
    dof rx
    limits (-10.0 170.0)
  end
  begin
     id 4 
     name lfoot
     direction 0.0705293 -0.193778 0.978507   
     length 2.13618   
     axis -90 7.62852e-016 20   XYZ
    dof rx rz
    limits (-45.0 90.0)
           (-70.0 20.0)
  end
  begin
     id 5 
     name ltoes
     direction 1.53592e-011 -4.21925e-011 1   
     length 1.07518   
     axis -90 7.62852e-016 20   XYZ
    dof rx
    limits (-90.0 20.0)
  end
  begin
     id 6 
     name rhipjoint
     direction -0.57 -0.782963 0.249136   
     length 2.4047  
     axis 0 0 0  XYZ 
  end
  begin
     id 7 
     name rfemur
     direction -0.34202 -0.939693 0   
     length 7.51486   
     axis 0 0 -20   XYZ
    dof rx ry rz
    limits (-160.0 20.0)
           (-70.0 70.0)
           (-70.0 60.0)
  end
  begin
     id 8 
     name rtibia
     direction -0.34202 -0.939693 0   
     length 8.08317   
     axis 0 0 -20   XYZ
    dof rx
    limits (-10.0 170.0)
 end
 begin
     id 9 
     name rfoot
     direction -0.104954 -0.281256 0.953876   
     length 2.30343  
     axis -90 -7.62852e-016 -20   XYZ
    dof rx rz
    limits (-45.0 90.0)
           (-20.0 70.0)
  end
  begin
     id 10 
     name rtoes
     direction -1.53556e-011 -4.21922e-011 1   
     length 1.14803   
     axis -90 -7.62852e-016 -20   XYZ
    dof rx
    limits (-90.0 20.0)
  end
  begin
     id 11 
     name lowerback
     direction -0.0152855 0.99353 -0.11254   
     length 2.05311   
     axis 0 0 0   XYZ
    dof rx ry rz
    limits (-20.0 45.0)
           (-30.0 30.0)
           (-30.0 30.0)
  end
  begin
     id 12 
     name upperback
     direction -0.00157509 0.999443 -0.033332   
     length 2.06353   
     axis 0 0 0   XYZ
    dof rx ry rz
    limits (-20.0 45.0)
           (-30.0 30.0)
           (-30.0 30.0)
  end
  begin
     id 13 
     name thorax
     direction 0.00577788 0.999804 0.0189484   
     length 2.08472   
     axis 0 0 0   XYZ
    dof rx ry rz
    limits (-20.0 45.0)
           (-30.0 30.0)
           (-30.0 30.0)
  end
  begin
     id 14 
     name lowerneck
     direction -1.09301e-005 0.994719 0.10264   
     length 1.76249   
     axis 0 0 0   XYZ
    dof rx ry rz
    limits (-20.0 45.0)
           (-30.0 30.0)
           (-30.0 30.0)
  end
  begin
     id 15 
     name upperneck
     direction 0.0495018 0.988526 -0.142706   
     length 1.77897   
     axis 0 0 0   XYZ
    dof rx ry rz
    limits (-20.0 45.0)
           (-30.0 30.0)
           (-30.0 30.0)
  end
  begin
     id 16
     name head
     direction 0.0142736 0.998114 -0.0597101  
     length 1.78934  
     axis 0 0 0   XYZ
    dof rx ry rz
    limits (-20.0 45.0)
           (-30.0 30.0)
           (-30.0 30.0)
  end
  begin
     id 17 
     name lclavicle
     direction 0.918111 0.396107 -0.0130883  
     length 3.37276  
     axis 0 0 0   XYZ
    dof ry rz
    limits (-20.0 10.0)
           (0.0 20.0)
  end
  begin
     id 18 
     name lhumerus
     direction 1 -4.48975e-011 -3.26108e-027   
     length 5.34298   
     axis 180 -30 -90   XYZ
    dof rx ry rz
    limits (-60.0 90.0)
           (-90.0 90.0)
           (-90.0 90.0)
  end
  begin
     id 19
     name lradius
     direction 1 -4.48964e-011 -8.84413e-028   
     length 3.67262   
     axis 180 -30 -90   XYZ
    dof rx
    limits (-10.0 170.0)
  end
  begin
     id 20
     name lwrist
     direction 1 -4.48991e-011 -1.24264e-027   
     length 1.83631   
     axis -2.17013e-015 90 90   XYZ
    dof ry
    limits (-180.0 0.0)
 end
  begin
     id 21 
     name lhand
     direction 1 -4.48855e-011 -2.48528e-027   
     length 0.599298   
     axis 1.58582e-015 90 90   XYZ
    dof rx rz
    limits (-90.0 90.0)
           (-45.0 45.0)
  end
  begin
     id 22 
     name lfingers
     direction 1 -4.48811e-011 -4.97056e-027   
     length 0.48317   
     axis 3.17164e-015 90 90   XYZ
    dof rx
    limits (0.0 90.0)
  end
  begin
     id 23
     name lthumb
     direction 0.707107 -6.34882e-011 0.707107   
     length 0.693738   
     axis -90 45 2.85299e-015   XYZ
    dof rx rz
    limits (-45.0 45.0)
           (-45.0 45.0)
  end
  begin
     id 24 
     name rclavicle
     direction -0.920511 0.384752 -0.0680135   
     length 3.43787  
     axis 0 0 0   XYZ 
    dof ry rz
    limits (-10.0 20.0)
           (-20.0 0.0)
  end
  begin
     id 25 
     name rhumerus
     direction -0.999976 -0.00330524 0.00603274  
     length 5.5498   
     axis 180 30 90   XYZ
    dof rx ry rz
    limits (-90.0 60.0)
           (-90.0 90.0)
           (-90.0 90.0)
  end
  begin
     id 26 
     name rradius
     direction -1 -4.48967e-011 8.62438e-027   
     length 3.69401   
     axis 180 30 90   XYZ
    dof rx
    limits (-10.0 170.0)
  end
  begin
     id 27 
     name rwrist
     direction -1 -4.4897e-011 9.54866e-027   
     length 1.84701   
     axis -7.69462e-015 -90 -90   XYZ
    dof ry
    limits (-180.0 0.0)
  end
  begin
     id 28
     name rhand
     direction -1 -4.48982e-011 1.90973e-026   
     length 0.638113   
     axis -1.21857e-014 -90 -90   XYZ
    dof rx rz
    limits (-90.0 90.0)
           (-45.0 45.0)
  end
  begin
     id 29
     name rfingers
     direction -1 -4.48936e-011 3.81946e-026   
     length 0.514463   
     axis -2.43714e-014 -90 -90   XYZ
    dof rx
    limits (0.0 90.0)
  end
  begin
     id 30
     name rthumb
     direction -0.707107 -6.34942e-011 0.707107   
     length 0.738669   
     axis -90 -45 -2.85299e-015   XYZ
    dof rx rz
    limits (-45.0 45.0)
           (-45.0 45.0)
  end
:hierarchy
  begin
    root lhipjoint rhipjoint lowerback
    lhipjoint lfemur
    lfemur ltibia
    ltibia lfoot
    lfoot ltoes
    rhipjoint rfemur
    rfemur rtibia
    rtibia rfoot
    rfoot rtoes
    lowerback upperback
    upperback thorax
    thorax lowerneck lclavicle rclavicle
    lowerneck upperneck
    upperneck head
    lclavicle lhumerus
    lhumerus lradius
    lradius lwrist
    lwrist lhand lthumb
    lhand lfingers
    rclavicle rhumerus
    rhumerus rradius
    rradius rwrist
    rwrist rhand rthumb
    rhand rfingers
  end

#!OML:ASF F:\twosubjects\two\Thursday\Session 1\Rory.ASF
:FULLY-SPECIFIED
:DEGREES
1
root 9.64478 13.2518 5.07415 -132.926 -85.4412 108.087
lowerback 37.7113 1.86732 2.39993
upperback 15.886 0.777632 -1.56988
thorax -1.06976 -0.355252 -3.13054
lowerneck -15.3769 3.62032 1.73271
upperneck 2.58932 4.56485 -1.88231
head 3.68808 2.16479 -0.575766
rclavicle -3.18055e-015 -9.54166e-015
rhumerus -0.555416 14.2537 -86.7204
rradius 59.6635
rwrist 21.6735
rhand -32.7728 37.0136
rfingers 7.12502
rthumb -5.99483 7.11845
lclavicle -3.18055e-015 -9.54166e-015
lhumerus 6.11362 -35.943 76.2941
lradius 57.8615
lwrist -24.2247
lhand -20.3461 32.6465
lfingers 7.12502
lthumb 6.00565 62.5414
rfemur -45.4881 -5.20453 6.47592
rtibia 63.9101
rfoot 10.0355 -5.20718
rtoes -3.4734
lfemur -42.6229 4.63229 -12.6916
ltibia 58.4093
lfoot 11.1145 4.43819
ltoes 25.8903
2
root 9.64342 13.2516 5.06976 -136.497 -85.519 111.694
lowerback 37.7087 1.902 2.43516
upperback 15.846 0.837452 -1.50696
thorax -1.10815 -0.327844 -3.10203
lowerneck -15.3009 3.63198 1.59348
upperneck 2.59178 4.59909 -1.7527
head 3.6663 2.18712 -0.506039
rclavicle -1.36167e-014 2.127e-014
rhumerus -0.465196 14.2443 -86.7637
rradius 59.5682
rwrist 21.4457
rhand -32.7991 37.514
rfingers 7.12502
rthumb -6.02028 7.61956
lclavicle -1.36167e-014 2.127e-014
lhumerus 6.04694 -35.7209 76.4572
lradius 57.7011
lwrist -24.4948
lhand -20.5806 32.5017
lfingers 7.12502
lthumb 5.77928 62.4029
rfemur -45.491 -4.9445 6.78816
rtibia 63.8156
rfoot 10.1928 -5.30491
rtoes -3.86365
lfemur -42.6768 4.78749 -12.3611
ltibia 58.5251
lfoot 11.2689 3.86218
ltoes 23.8488
3
root 9.64399 13.2523 5.07355 -136.554 -85.5222 111.82
lowerback 37.7561 1.8821 2.40684
upperback 15.7475 0.820497 -1.46417
thorax -1.23302 -0.337467 -3.03594
lowerneck -15.3039 3.55096 1.26751
upperneck 2.71675 4.5371 -1.4948
head 3.69273 2.16509 -0.365809
rclavicle -6.16232e-015 1.53064e-014
rhumerus -0.487893 14.2348 -86.7284
rradius 59.5771
rwrist 21.0843
rhand -32.4648 37.461
rfingers 7.12502
rthumb -5.69745 7.55756
lclavicle -6.16232e-015 1.53064e-014
lhumerus 6.01831 -35.6484 76.5881
lradius 57.5189
lwrist -24.4969
lhand -21.0052 32.3623
lfingers 7.12502
lthumb 5.36934 62.2743
rfemur -45.5391 -4.86286 6.73541
rtibia 63.813
rfoot 10.0958 -5.46367
rtoes -3.05109
lfemur -42.7557 4.83483 -12.3848
ltibia 58.5038
lfoot 11.2528 3.87216
ltoes 24.2138
4
root 9.64791 13.2608 5.07554 -135.537 -85.6893 110.902
lowerback 37.671 1.7915 2.53249
upperback 15.6889 0.772289 -1.40039
thorax -1.27026 -0.351519 -3.01843
lowerneck -15.2486 3.44385 1.04819
upperneck 2.77669 4.42752 -1.34542
head 3.6911 2.1159 -0.286259
rclavicle -1.59028e-015 -4.77083e-015
rhumerus -0.42962 14.0785 -86.7001
rradius 59.549
rwrist 20.5955
rhand -31.5958 36.6691
rfingers 7.12502
rthumb -4.85849 6.74479
lclavicle -1.59028e-015 -4.77083e-015
lhumerus 6.01228 -35.6675 76.7163
lradius 57.3833
lwrist -24.4241
lhand -21.1024 32.4492
lfingers 7.12502
lthumb 5.27544 62.3636
rfemur -45.6113 -4.99385 6.7119
rtibia 63.8166
rfoot 9.93396 -5.78038
rtoes -0.255048
lfemur -42.8867 4.73436 -12.3521
ltibia 58.4769
lfoot 11.1949 4.02421
ltoes 25.1207
5
root 9.64732 13.2662 5.07403 -135.551 -85.8985 110.942
lowerback 37.5757 1.70919 2.72209
upperback 15.6826 0.743894 -1.36828
thorax -1.24371 -0.353091 -3.07458
lowerneck -15.2439 3.41084 1.05067
upperneck 2.89763 4.38157 -1.27503
head 3.73094 2.09714 -0.265796
rclavicle -2.08724e-015 -6.95746e-015
rhumerus -0.308071 13.9683 -86.6005
rradius 59.451
rwrist 20.0997
rhand -30.9955 36.2476
rfingers 7.12502
rthumb -4.27883 6.31083
lclavicle -2.08724e-015 -6.95746e-015
lhumerus 6.16276 -35.827 76.4627
lradius 57.3711
lwrist -24.3497
lhand -21.2883 31.9736
lfingers 7.12502
lthumb 5.09599 61.8923
rfemur -45.5886 -5.15609 6.90678
rtibia 63.8023
rfoot 10.0027 -5.81812
rtoes -0.658162
lfemur -42.9232 4.61544 -12.1915
ltibia 58.4493
lfoot 11.2248 4.27689
ltoes 25.6486
6
root 9.64456 13.2656 5.0709 -135.494 -85.8319 110.828
lowerback 37.6431 1.76362 2.59895
upperback 15.6615 0.769783 -1.37111
thorax -1.28985 -0.348336 -3.02142
lowerneck -15.3991 3.40327 1.09086
upperneck 3.22582 4.36953 -1.26477
head 3.88001 2.09178 -0.264523
rclavicle -1.80894e-014 2.98177e-015
rhumerus -0.295585 14.1356 -86.4596
rradius 59.3719
rwrist 19.6099
rhand -31.246 36.2133
rfingers 7.12502
rthumb -4.52071 6.28151
lclavicle -1.80894e-014 2.98177e-015
lhumerus 6.31419 -35.935 76.1792
lradius 57.3138
lwrist -24.4473
lhand -21.5574 31.3554
lfingers 7.12502
lthumb 4.83617 61.2802
rfemur -45.4828 -5.02916 6.8629
rtibia 63.7655
rfoot 10.0146 -5.8765
rtoes -0.954858
lfemur -42.8258 4.65056 -12.2398
ltibia 58.4399
lfoot 11.2499 4.41159
ltoes 25.8751
7
root 9.64321 13.2679 5.06601 -136.187 -85.7381 111.506
lowerback 37.5967 1.83795 2.38431
upperback 15.6728 0.783565 -1.39693
thorax -1.2678 -0.353138 -2.94099
lowerneck -15.6451 3.42852 1.33668
upperneck 3.63059 4.37326 -1.40113
head 4.08622 2.08932 -0.345934
rclavicle -2.5842e-015 1.35174e-014
rhumerus -0.361438 14.2404 -86.6679
rradius 59.2836
rwrist 19.4516
rhand -31.6571 36.3543
rfingers 7.12502
rthumb -4.91765 6.43136
lclavicle -2.5842e-015 1.35174e-014
lhumerus 6.37329 -35.8016 76.01
lradius 57.1517
lwrist -24.5145
lhand -21.6244 31.2907
lfingers 7.12502
lthumb 4.77149 61.2169
rfemur -45.4469 -4.91814 6.82205
rtibia 63.72
rfoot 9.93255 -5.91453
rtoes -0.000303679
lfemur -42.774 4.7287 -12.2397
ltibia 58.4475
lfoot 11.1846 4.19774
ltoes 25.4511
8
root 9.63784 13.2666 5.06566 -136.734 -85.7296 112.054
lowerback 37.5068 1.83735 2.35073
upperback 15.6733 0.768285 -1.48218
thorax -1.24061 -0.356865 -3.008
lowerneck -15.9061 3.46363 1.7198
upperneck 4.43522 4.3685 -1.59975
head 3.94268 2.07814 -0.426017
rclavicle -6.65929e-015 5.96354e-015
rhumerus -0.442299 14.0474 -87.0845
rradius 59.1362
rwrist 19.627
rhand -32.1629 36.4595
rfingers 7.12502
rthumb -5.40597 6.54842
lclavicle -6.65929e-015 5.96354e-015
lhumerus 6.42061 -35.7901 75.736
lradius 57.2767
lwrist -25.0504
lhand -20.0025 31.4798
lfingers 7.12502
lthumb 6.33743 61.365
rfemur -45.4292 -5.11192 6.96291
rtibia 63.6826
rfoot 10.131 -5.42343
rtoes -3.17451
lfemur -42.7729 4.72867 -12.1949
ltibia 58.4599
lfoot 11.0987 4.04411
ltoes 25.1193
9
root 9.63523 13.264 5.06433 -138.756 -85.7399 114.027
lowerback 37.6029 1.90422 2.50056
upperback 15.6263 0.905774 -1.49417
thorax -1.30962 -0.280055 -3.14361
lowerneck -15.9488 3.38005 1.85312
upperneck 4.73083 4.23854 -1.61134
head 4.04199 2.0163 -0.457529
rclavicle 2.20651e-014 -2.14687e-014
rhumerus -0.498112 13.5786 -87.2986
rradius 58.9646
rwrist 19.7603
rhand -32.5809 36.5478
rfingers 7.12502
rthumb -5.80963 6.64746
lclavicle 2.20651e-014 -2.14687e-014
lhumerus 6.52392 -36.2851 75.6045
lradius 57.0841
lwrist -24.0925
lhand -21.0739 32.1935
lfingers 7.12502
lthumb 5.30302 62.1072
rfemur -45.3756 -4.9792 7.14405
rtibia 63.6785
rfoot 10.2727 -5.33804
rtoes -5.26338
lfemur -42.6895 4.84504 -12.0694
ltibia 58.4435
lfoot 11.1265 4.35141
ltoes 26.5276
10
root 9.6394 13.2694 5.06612 -137.092 -85.5775 112.363
lowerback 37.6185 2.02259 2.46306
upperback 15.6001 1.04605 -1.53259
thorax -1.33523 -0.207309 -3.21034
lowerneck -15.8959 3.21965 1.7596
upperneck 4.96101 4.03981 -1.48755
head 4.09734 1.92501 -0.419248
rclavicle 5.26779e-015 -1.98785e-014
rhumerus -0.494541 12.935 -87.3784
rradius 58.7443
rwrist 19.8806
rhand -32.5364 37.0199
rfingers 7.12502
rthumb -5.76665 7.11841
lclavicle 5.26779e-015 -1.98785e-014
lhumerus 6.65078 -36.6167 75.6383
lradius 57.0077
lwrist -24.3805
lhand -20.4187 32.7551
lfingers 7.12502
lthumb 5.93562 62.652
rfemur -45.4163 -4.92633 6.84718
rtibia 63.6915
rfoot 10.1513 -5.5566
rtoes -3.39438
lfemur -42.6388 4.90671 -12.3324
ltibia 58.4154
lfoot 11.1654 4.65301
ltoes 27.6494
